<?xml version="1.0" encoding="utf-8"?>
<!-- Generator: Adobe Illustrator 24.1.2, SVG Export Plug-In . SVG Version: 6.00 Build 0)  -->
<svg version="1.1" id="Layer_1" xmlns="http://www.w3.org/2000/svg" xmlns:xlink="http://www.w3.org/1999/xlink" x="0px" y="0px"
	 width="96px" height="96px" viewBox="0 0 96 96" style="enable-background:new 0 0 96 96;" xml:space="preserve">
<style type="text/css">
	.st0{fill:#CCCCCC;}
	.st1{fill:#B3B3B3;}
	.st2{clip-path:url(#SVGID_4_);fill:#510F18;}
	.st3{clip-path:url(#SVGID_4_);}
	.st4{fill:#791621;}
	.st5{fill:none;stroke:#791621;stroke-width:19;stroke-miterlimit:10;}
	.st6{fill:none;}
	.st7{fill:#FFFFFF;}
	.st8{fill:#1A1A1A;}
	.st9{fill:#F15A24;}
	.st10{fill:#EA244A;}
	.st11{fill:#F05A26;}
	.st12{fill:#E8274B;}
	.st13{fill:none;stroke:#791621;stroke-width:12;stroke-linecap:round;stroke-linejoin:round;stroke-miterlimit:10;}
	.st14{opacity:0.25;}
	.st15{fill:#0F0F0F;}
	.st16{opacity:0.1;}
	.st17{fill:#E6E6E6;}
	.st18{fill:#949494;}
	.st19{fill:#510F18;}
	.st20{fill:#63111D;}
	.st21{fill:#999999;}
	.st22{fill:#777777;}
	.st23{fill:#791522;}
	.st24{fill:#791622;}
	.st25{fill:none;stroke:#FFFFFF;stroke-miterlimit:10;}
	.st26{fill:#4D4D4D;}
	.st27{clip-path:url(#SVGID_34_);}
	.st28{clip-path:url(#SVGID_38_);}
	.st29{fill:#666666;}
	.st30{clip-path:url(#SVGID_46_);}
	.st31{clip-path:url(#SVGID_50_);}
	.st32{clip-path:url(#SVGID_54_);}
	.st33{fill:#333333;}
	.st34{fill:none;stroke:#F15A24;stroke-miterlimit:10;}
	.st35{opacity:0.5;}
	.st36{fill:#F2F2F2;}
	.st37{fill:#808080;}
</style>
<g>
	<path class="st4" d="M25.43,30.06c4.35-4.37,9.92-7.68,16.07-9.62c11.88-4.03,26.2-0.7,34.43,8.18c1.1,1.21,2.08,2.51,3.13,3.76
		l-8.01,5.98c-6.62-11-23.46-13.77-33.44-5.04c-9.01,7.46-9.94,20.82-0.15,29.24c9.84,8.9,27.02,6.14,33.57-4.88l8.09,5.86
		c-2.1,2.66-4.22,5.29-7.11,7.28c-19.21,14.18-47.51,3.72-51.5-18.48l-7.04,10.6c2.67,5.3,7.27,11.31,12.18,15
		c19.34,14.69,48.61,10.06,62.03-9.29c2.75,1.82,5.49,3.64,8.31,5.51c-21.21,29.49-68.11,29.04-88.39-1.04
		c-2.24-3.32-4.01-6.84-5.28-10.58C2.33,62.56,9.97,45.6,25.43,30.06z"/>
	<path class="st4" d="M0,46.08C15.85,12.97,60.55-7.31,87.73,27.33c2.68-1.78,5.44-3.61,8.23-5.46C67.77-17.21,2.39-0.72,0,46.08z"
		/>
</g>
</svg>
