<?xml version="1.0" encoding="utf-8"?>
<!-- Generator: Adobe Illustrator 24.1.2, SVG Export Plug-In . SVG Version: 6.00 Build 0)  -->
<svg version="1.1" id="Layer_1" xmlns="http://www.w3.org/2000/svg" xmlns:xlink="http://www.w3.org/1999/xlink" x="0px" y="0px"
	 width="577.79px" height="107.89px" viewBox="0 0 577.79 107.89" style="enable-background:new 0 0 577.79 107.89;"
	 xml:space="preserve">
<style type="text/css">
	.st0{fill:#CCCCCC;}
	.st1{fill:#B3B3B3;}
	.st2{clip-path:url(#SVGID_4_);fill:#510F18;}
	.st3{clip-path:url(#SVGID_4_);}
	.st4{fill:#791621;}
	.st5{fill:none;stroke:#791621;stroke-width:19;stroke-miterlimit:10;}
	.st6{fill:none;}
	.st7{fill:#FFFFFF;}
	.st8{fill:#1A1A1A;}
	.st9{fill:#F15A24;}
	.st10{fill:#EA244A;}
	.st11{fill:#F05A26;}
	.st12{fill:#E8274B;}
	.st13{fill:none;stroke:#791621;stroke-width:12;stroke-linecap:round;stroke-linejoin:round;stroke-miterlimit:10;}
	.st14{opacity:0.25;}
	.st15{fill:#0F0F0F;}
	.st16{opacity:0.1;}
	.st17{fill:#E6E6E6;}
	.st18{fill:#949494;}
	.st19{fill:#510F18;}
	.st20{fill:#63111D;}
	.st21{fill:#999999;}
	.st22{fill:#777777;}
	.st23{fill:#791522;}
	.st24{fill:#791622;}
	.st25{fill:none;stroke:#FFFFFF;stroke-miterlimit:10;}
	.st26{fill:#4D4D4D;}
	.st27{clip-path:url(#SVGID_34_);}
	.st28{clip-path:url(#SVGID_38_);}
	.st29{fill:#666666;}
	.st30{clip-path:url(#SVGID_46_);}
	.st31{clip-path:url(#SVGID_50_);}
	.st32{clip-path:url(#SVGID_54_);}
	.st33{fill:#333333;}
	.st34{fill:none;stroke:#F15A24;stroke-miterlimit:10;}
	.st35{opacity:0.5;}
	.st36{fill:#F2F2F2;}
	.st37{fill:#808080;}
</style>
<g>
	<g>
		<path class="st4" d="M3.03,16.08h9.86l35.99,61.47V16.08h8.71v75.72H47.44l-35.8-60.73v60.73H3.03V16.08z"/>
		<path class="st4" d="M86.21,16.08v75.72h-9V16.08H86.21z"/>
		<path class="st4" d="M161.25,16.08L132.54,46.5l29.86,45.31h-11.49l-24.7-38.5l-11.29,11.91v26.59h-9V16.08h9v37.54l34.55-37.54
			H161.25z"/>
		<path class="st4" d="M308.28,16.08v8.72h-38.19v23.72h35.7v8.4h-35.7v26.16h38.67v8.72h-47.67V16.08H308.28z"/>
		<path class="st4" d="M323.5,16.08h9.86l35.99,61.47V16.08h8.71v75.72h-10.15l-35.8-60.73v60.73h-8.61V16.08z"/>
		<path class="st4" d="M444.58,16.08v8.72H421.7v67h-9v-67h-22.88v-8.72H444.58z"/>
		<path class="st4" d="M503.73,16.08v8.72h-38.19v23.72h35.7v8.4h-35.7v26.16h38.67v8.72h-47.67V16.08H503.73z"/>
		<path class="st4" d="M519.33,16.08h29.96c15.25,0,22.88,6.98,22.88,20.95c0,4.4-1.07,8.28-3.21,11.65
			c-2.14,3.37-4.96,5.62-8.47,6.75c2.3,0.57,4.15,1.38,5.55,2.45c1.4,1.06,2.42,2.55,3.06,4.47c0.64,1.91,1.05,3.62,1.24,5.11
			c0.19,1.49,0.35,3.69,0.48,6.59c0,0.28,0.03,0.98,0.1,2.07c0.06,1.1,0.1,1.84,0.1,2.23c0,0.39,0.05,1.08,0.14,2.07
			c0.1,0.99,0.17,1.74,0.24,2.23c0.06,0.5,0.16,1.17,0.29,2.02c0.13,0.85,0.29,1.54,0.48,2.07c0.19,0.53,0.41,1.14,0.67,1.81
			c0.25,0.67,0.54,1.28,0.86,1.81c0.32,0.53,0.67,1.01,1.05,1.44h-10.34c-0.45-0.71-0.81-1.6-1.1-2.66
			c-0.29-1.06-0.49-2.32-0.62-3.78c-0.13-1.45-0.22-2.62-0.29-3.51c-0.06-0.89-0.13-2.18-0.19-3.88c-0.06-1.7-0.1-2.66-0.1-2.87
			c-0.32-6.45-1.52-10.74-3.59-12.87c-2.07-2.13-6.17-3.19-12.3-3.19h-17.9v32.76h-9V16.08z M528.33,24.59v26.48h16.94
			c2.11,0,3.88-0.07,5.31-0.21c1.44-0.14,3.02-0.46,4.74-0.96c1.72-0.5,3.11-1.2,4.16-2.13c1.05-0.92,1.93-2.23,2.63-3.94
			c0.7-1.7,1.05-3.76,1.05-6.17c0-5.11-1.39-8.56-4.16-10.37c-2.78-1.81-6.56-2.71-11.34-2.71H528.33z"/>
	</g>
	<g>
		<path class="st4" d="M185.59,35.08c4.2-4.6,9.59-8.07,15.53-10.11c11.48-4.23,25.32-0.74,33.28,8.6c1.06,1.28,2.01,2.64,3.02,3.96
			l-7.74,6.29c-6.4-11.57-22.67-14.47-32.31-5.3c-8.71,7.84-9.6,21.89-0.15,30.75c9.51,9.36,26.11,6.46,32.45-5.13l7.82,6.17
			c-2.03,2.8-4.08,5.56-6.87,7.66c-18.56,14.91-45.92,3.92-49.78-19.44l-6.8,11.15c2.58,5.58,7.03,11.89,11.77,15.77
			c18.69,15.44,46.98,10.58,59.95-9.76c2.65,1.91,5.31,3.83,8.03,5.8c-20.49,31.01-65.83,30.53-85.43-1.1
			c-2.16-3.49-3.88-7.2-5.1-11.12C163.26,69.25,170.65,51.43,185.59,35.08z"/>
		<path class="st4" d="M161.01,51.93c15.32-34.81,58.52-56.14,84.78-19.72c2.59-1.87,5.26-3.79,7.96-5.74
			C226.5-14.63,163.31,2.72,161.01,51.93z"/>
	</g>
</g>
</svg>
